<svg xmlns="http://www.w3.org/2000/svg" width="107" height="27" fill="none"><path fill="#6D758F" d="M5.063 26.182H0L9.217 0h5.855l9.23 26.182H19.24L12.247 5.369h-.204l-6.98 20.813Zm.166-10.266h13.806v3.81H5.23v-3.81ZM33.251 26.578c-1.244 0-2.365-.221-3.362-.665a5.487 5.487 0 0 1-2.352-1.994c-.571-.878-.857-1.96-.857-3.247 0-1.108.205-2.024.614-2.749a4.749 4.749 0 0 1 1.674-1.738 8.447 8.447 0 0 1 2.391-.985c.895-.23 1.82-.396 2.774-.498 1.15-.12 2.084-.226 2.8-.32.716-.102 1.236-.256 1.56-.46.332-.213.498-.541.498-.985v-.076c0-.963-.285-1.709-.856-2.237-.571-.529-1.394-.793-2.468-.793-1.133 0-2.032.247-2.697.741-.656.495-1.1 1.079-1.33 1.752l-4.32-.614c.34-1.193.903-2.19 1.687-2.991.784-.81 1.743-1.415 2.876-1.816 1.134-.409 2.387-.613 3.759-.613.946 0 1.887.11 2.825.332a7.95 7.95 0 0 1 2.57 1.1c.775.502 1.397 1.189 1.866 2.058.477.87.716 1.956.716 3.26v13.142H39.17v-2.698h-.153a5.65 5.65 0 0 1-1.19 1.534c-.502.47-1.137.848-1.904 1.138-.759.282-1.65.422-2.672.422Zm1.202-3.4c.929 0 1.734-.184 2.416-.55.682-.375 1.206-.87 1.572-1.483a3.778 3.778 0 0 0 .563-2.007v-2.314c-.145.12-.392.23-.741.332-.341.103-.725.192-1.151.269-.426.076-.848.145-1.266.204l-1.086.154a8.078 8.078 0 0 0-1.854.46c-.545.213-.976.511-1.291.895-.316.375-.473.86-.473 1.457 0 .852.31 1.496.933 1.93.622.435 1.415.653 2.378.653ZM63.846 11.736l-4.218.46A3.39 3.39 0 0 0 59 10.994c-.29-.375-.682-.677-1.176-.907-.494-.23-1.1-.346-1.815-.346-.963 0-1.773.21-2.43.627-.647.418-.967.959-.958 1.623-.009.572.2 1.036.626 1.394.435.358 1.15.652 2.148.882l3.35.716c1.857.4 3.238 1.035 4.142 1.905.911.87 1.372 2.007 1.38 3.413-.008 1.236-.37 2.327-1.087 3.273-.707.937-1.691 1.67-2.953 2.199-1.261.528-2.71.792-4.346.792-2.404 0-4.338-.503-5.804-1.508-1.466-1.014-2.34-2.425-2.62-4.232l4.512-.434c.204.886.64 1.555 1.304 2.007.665.451 1.53.677 2.595.677 1.1 0 1.981-.226 2.646-.677.674-.452 1.01-1.01 1.01-1.675 0-.563-.217-1.027-.652-1.393-.426-.367-1.09-.648-1.994-.844l-3.35-.703c-1.883-.392-3.277-1.053-4.18-1.982-.903-.937-1.35-2.122-1.342-3.554-.009-1.21.32-2.258.984-3.145.673-.895 1.607-1.585 2.8-2.07 1.202-.495 2.587-.742 4.155-.742 2.3 0 4.112.49 5.433 1.47 1.33.98 2.152 2.305 2.467 3.976ZM72.766 14.676v11.506h-4.628V0h4.526v9.882h.23c.46-1.108 1.172-1.981 2.135-2.62.971-.648 2.207-.972 3.707-.972 1.364 0 2.553.285 3.567.856 1.014.571 1.798 1.407 2.352 2.506.563 1.1.844 2.442.844 4.027v12.503h-4.628V14.395c0-1.321-.34-2.348-1.023-3.081-.673-.742-1.619-1.112-2.838-1.112-.818 0-1.55.179-2.199.537-.639.35-1.142.856-1.508 1.52-.358.666-.537 1.471-.537 2.417ZM95.92 26.578c-1.243 0-2.364-.221-3.361-.665a5.487 5.487 0 0 1-2.353-1.994c-.57-.878-.856-1.96-.856-3.247 0-1.108.204-2.024.614-2.749a4.75 4.75 0 0 1 1.674-1.738 8.446 8.446 0 0 1 2.39-.985c.896-.23 1.82-.396 2.775-.498 1.15-.12 2.084-.226 2.8-.32.716-.102 1.236-.256 1.559-.46.333-.213.499-.541.499-.985v-.076c0-.963-.286-1.709-.857-2.237-.571-.529-1.393-.793-2.467-.793-1.133 0-2.033.247-2.697.741-.657.495-1.1 1.079-1.33 1.752l-4.32-.614c.34-1.193.903-2.19 1.687-2.991.784-.81 1.742-1.415 2.876-1.816 1.133-.409 2.386-.613 3.758-.613.947 0 1.888.11 2.826.332a7.945 7.945 0 0 1 2.569 1.1c.776.502 1.398 1.189 1.867 2.058.477.87.716 1.956.716 3.26v13.142h-4.449v-2.698h-.153a5.674 5.674 0 0 1-1.189 1.534c-.503.47-1.138.848-1.905 1.138-.759.282-1.65.422-2.672.422Zm1.203-3.4c.929 0 1.734-.184 2.416-.55.682-.375 1.206-.87 1.572-1.483a3.778 3.778 0 0 0 .563-2.007v-2.314c-.145.12-.392.23-.742.332-.341.103-.724.192-1.15.269-.426.076-.848.145-1.266.204l-1.087.154a8.078 8.078 0 0 0-1.853.46c-.546.213-.976.511-1.291.895-.316.375-.474.86-.474 1.457 0 .852.312 1.496.934 1.93.622.435 1.414.653 2.378.653Z"/></svg>