<svg xmlns="http://www.w3.org/2000/svg" width="24" height="24" fill="none"><rect width="24" height="24" fill="#B4B9C9" rx="4"/><path fill="#fff" fill-rule="evenodd" d="M6 12c0-2.39676 0-3.59514.57113-4.4583a3.43973 3.43973 0 0 1 .97057-.97057C8.40486 6 9.60324 6 12 6c2.3968 0 3.5951 0 4.4583.57113.3854.25503.7155.58513.9706.97057C18 8.40486 18 9.60324 18 12c0 2.3968 0 3.5951-.5711 4.4583a3.44279 3.44279 0 0 1-.9706.9706C15.5951 18 14.3968 18 12 18c-2.39676 0-3.59514 0-4.4583-.5711a3.44126 3.44126 0 0 1-.97057-.9706C6 15.5951 6 14.3968 6 12Zm9.1062.0002c0 1.7155-1.3908 3.1062-3.1063 3.1062-1.7156 0-3.10628-1.3907-3.10628-3.1062 0-1.7156 1.39068-3.10632 3.10628-3.10632 1.7155 0 3.1063 1.39072 3.1063 3.10632Zm-3.1063 2.0553c1.1351 0 2.0553-.9202 2.0553-2.0553 0-1.1352-.9202-2.05538-2.0553-2.05538s-2.05534.92018-2.05534 2.05538c0 1.1351.92024 2.0553 2.05534 2.0553Zm3.2289-4.5878c.4032 0 .7299-.32678.7299-.72988 0-.40311-.3267-.72989-.7299-.72989-.4031 0-.7298.32678-.7298.72989 0 .4031.3267.72988.7298.72988Z" clip-rule="evenodd"/></svg>