<svg xmlns="http://www.w3.org/2000/svg" width="24" height="24" fill="none"><rect width="24" height="24" fill="#B4B9C9" rx="4"/><path fill="#fff" d="M14.018 7.134v-.00216h.5627l.2056.04106c.1371.02665.2615.06159.3733.10481.1118.04322.22.09365.3246.15128s.1995.11634.2846.17613c.0844.05908.1602.12175.2272.18802.0664.06699.1699.08428.3106.05187.1407-.03242.2921-.07745.4544-.13507a6.09668 6.09668 0 0 0 .4816-.19451c.1587-.07204.2553-.11778.29-.13723.0339-.02016.0519-.03097.0541-.03241l.0021-.00324.0108-.00541.0109-.0054.0108-.0054.0108-.00541.0022-.00324.0032-.00216.0033-.00216.0021-.00324.0108-.00324.0109-.00216-.0022.0162-.0032.01621-.0055.01621-.0054.01621-.0054.0108-.0054.01081-.0054.01621c-.0036.0108-.0072.02521-.0108.04322-.0036.01801-.0379.09004-.1028.21611-.0649.12607-.1461.25394-.2435.3836-.0974.12967-.1846.22763-.2618.29391-.0779.067-.1295.11382-.1548.14048-.0252.02737-.0559.05258-.0919.07564l-.0541.03566-.0109.0054-.0108.0054-.0021.00324-.0033.00216-.0032.00216-.0022.00325-.0108.0054-.0108.0054-.0022.00324-.0033.00217-.0032.00216-.0022.00324-.0021.00324-.0033.00216-.0032.00216-.0022.00324h.0541l.303-.06483c.202-.04322.3949-.09545.5789-.15668l.2921-.09725.0325-.01081.0162-.0054.0109-.0054.0108-.00541.0108-.0054.0108-.0054.0217-.00324L18 8.28804v.02161l-.0054.00216-.0054.00324-.0022.00324-.0032.00216-.0033.00216-.0021.00325-.0022.00324-.0033.00216-.0032.00216-.0022.00324-.0021.00324-.0033.00216-.0054.01081-.0054.0108-.0032.00217c-.0015.00216-.0473.06338-.1375.18369-.0901.12102-.1388.18225-.146.1837-.0072.00216-.0174.01296-.0303.03241-.0123.02017-.0888.1005-.2294.24097-.1407.14047-.2785.26545-.4134.37495-.1356.11022-.2041.24565-.2056.40629-.0021.15993-.0104.34075-.0249.54245-.0144.2017-.0414.4196-.0811.6537-.0397.2342-.101.4989-.184.7942a7.21037 7.21037 0 0 1-.3029.8645c-.1191.2809-.2435.5331-.3733.7564-.1299.2233-.2489.4124-.3571.5673-.1082.1549-.2182.3007-.33.4376-.1119.1369-.2532.291-.4242.4625-.1717.1707-.2655.2644-.2813.2809-.0166.0159-.0873.075-.2121.1772-.1241.1031-.2576.2061-.4004.3091-.1421.1023-.2727.1876-.3917.2561-.119.0684-.2626.1466-.4307.2345-.1673.0886-.3484.1707-.5431.2463-.1948.0757-.4004.1459-.6168.2107-.2164.0649-.4256.1153-.6276.1513-.202.036-.431.0667-.6871.0919l-.3841.0378v.0054h-.70338v-.0054l-.09198-.0054c-.06131-.0036-.11181-.0072-.15149-.0108-.03966-.0036-.18936-.0234-.44905-.0595-.25969-.036-.46348-.072-.61136-.108-.14787-.036-.3679-.1045-.66005-.2053-.29216-.1009-.54211-.2028-.74987-.3058-.20703-.1023-.33688-.1671-.38954-.1945-.05194-.0267-.11037-.0598-.17529-.0994l-.09739-.0595-.00215-.0032-.00326-.0022-.00324-.0021-.00217-.0033-.01082-.0054-.01082-.0054-.00215-.0032-.00326-.0022-.00325-.0021-.00216-.0033-.00215-.0032-.00326-.0022H6v-.0216l.01082.0022.01082.0032.04869.0054c.03247.0036.12084.009.26511.0162.14428.0072.29756.0072.45987 0s.32823-.0234.49775-.0486c.16952-.0252.3697-.0684.60054-.1297.23084-.0612.44293-.134.63626-.2182.1926-.085.32966-.1484.41118-.1902.08079-.0411.20414-.1174.37005-.2291l.24887-.1675.00217-.0032.00324-.0022.00326-.0022.00215-.0032.00217-.0032.00324-.0022.00326-.0022.00216-.0032.01082-.0032.01082-.0022.00216-.0108.00325-.0108.00325-.0022.00216-.0032-.08657-.0054a40.80376 40.80376 0 0 1-.16772-.0108c-.0541-.0036-.13886-.0198-.25428-.0486-.11541-.0289-.23985-.0721-.37331-.1297-.13345-.0576-.2633-.1261-.38954-.2053-.12623-.0793-.21749-.1452-.27376-.1978-.05554-.0518-.12768-.1253-.21641-.2204-.088-.0958-.16447-.1941-.2294-.295-.06492-.1008-.12695-.2172-.1861-.349l-.08982-.1967-.00541-.0162-.00541-.0162-.00325-.0108-.00216-.0108.01623.0022.01623.0032.11903.0162c.07935.0108.20379.0144.37331.0108.16952-.0036.28674-.0108.35166-.0216.06493-.0108.10461-.018.11903-.0216l.02164-.0054.02705-.0054.02705-.0054.00217-.0033.00324-.0021.00326-.0022.00215-.0032-.02164-.0054-.02164-.0054-.02164-.0054-.02164-.0054-.02164-.0054c-.01442-.0036-.03967-.0108-.07574-.0216-.03607-.0109-.13345-.0505-.29216-.1189-.15869-.0684-.28494-.1351-.37872-.1999a2.60398 2.60398 0 0 1-.26835-.2129c-.0844-.0778-.17709-.1779-.27809-.3004-.10099-.1224-.19115-.2647-.27051-.4268-.07935-.1621-.13886-.317-.17854-.4646a2.50667 2.50667 0 0 1-.0779-.4485l-.01949-.2269.01082.0022.01083.0032.01082.0054.01082.0054.01082.0054.01082.0054.16772.0757c.11182.0504.25068.0936.41659.1296.16592.036.2651.0559.29756.0595l.0487.0054h.09738l-.00215-.0033-.00326-.0021-.00325-.0022-.00216-.0032-.00215-.0033-.00326-.0021-.00325-.0022-.00216-.0033-.01082-.0054-.01082-.0054-.00216-.0032-.00325-.0022-.00325-.0021-.00216-.0033-.01082-.0054-.01082-.0054-.00216-.0032c-.00216-.0015-.03318-.0245-.09306-.0692-.05916-.0453-.12119-.1041-.18612-.1761a6.36576 6.36576 0 0 1-.19477-.2269 1.7538 1.7538 0 0 1-.17313-.2539c-.05049-.09009-.10387-.20464-.16014-.34366-.05554-.13832-.09774-.27771-.1266-.41818-.02885-.14047-.04508-.27914-.04869-.41602-.00361-.13687 0-.25393.01082-.35118s.03246-.20711.06492-.32957c.03246-.12246.07936-.25213.14067-.389l.09197-.20531.00541-.01621.00541-.0162.00326-.00217.00215-.00324.00217-.00324.00324-.00216.00326.00216.00215.00324.00217.00324.00324.00217.00326.00216.00215.00324.00217.00324.00324.00216.00541.01081.00541.0108.00326.00216.00215.00325.14608.16208c.09739.10806.21281.22872.34626.36199.13346.13326.2074.20242.22182.20746.01444.00576.03246.02233.0541.04971.02165.02666.09379.09041.21642.19126.12264.10085.28314.21792.48151.35118.19838.13327.4184.26474.66005.39441.24167.12966.50136.24672.77908.35118.27774.10446.47254.17289.58434.20531.1118.03241.303.07383.5735.12423.2705.0505.4743.0829.6113.0973.1371.0144.2309.0227.2814.0248l.0757.0022-.0021-.0162-.0033-.0162-.0216-.13509c-.0145-.09005-.0217-.21611-.0217-.3782 0-.16208.0126-.31156.0379-.44843.0252-.13688.0631-.27554.1136-.41602.0505-.14047.0999-.25322.1482-.33821.0491-.08429.1133-.18046.1926-.28851.0794-.10806.1822-.21971.3084-.33498.1263-.11526.2705-.21791.4329-.30796.1623-.09004.312-.15848.449-.2053.1371-.04682.2525-.07745.3463-.09185.0937-.0144.1406-.02269.1406-.02485Z"/></svg>