<svg xmlns="http://www.w3.org/2000/svg" width="24" height="24" fill="none"><rect width="24" height="24" fill="#B4B9C9" rx="4"/><path fill="#fff" d="m12.2924 16.6528-2.7081-.0506c-.87683-.0177-1.75584.0176-2.61548-.1652-1.30771-.273-1.40035-1.6116-1.4973-2.7344-.13357-1.5786-.08186-3.1858.17021-4.75116.14231-.87835.70233-1.40246 1.56838-1.4595 2.92359-.20698 5.86659-.18245 8.78369-.08588.3081.00885.6183.05723.922.11231 1.4996.26861 1.5361 1.78554 1.6334 3.06253.0969 1.2901.056 2.5869-.1293 3.8683-.1487 1.0609-.4331 1.9506-1.6333 2.0365-1.5039.1123-2.9732.2027-4.4813.1739.0001-.0068-.0086-.0068-.0129-.0068Zm-1.5921-2.686c1.1333-.6649 2.2449-1.3188 3.3717-1.9793-1.1354-.6649-2.2449-1.3188-3.3717-1.9793v3.9586Z"/></svg>